<svg id="Layer_1" data-name="Layer 1" xmlns="http://www.w3.org/2000/svg" viewBox="0 0 503.97 513.07"><defs><style>.cls-1{fill:#fff;}</style></defs><path class="cls-1" d="M840.55,366.76l47.24-32.37c-8.32-25.61-7.68-23.66-16-49.27l-57.25,1.59-26.19-36,19.2-54-41.91-30.45L720.26,201.2l-42.37-13.77-16.18-54.94h-51.8l-16.18,54.94L551.36,201.2,506,166.26l-41.9,30.45,19.2,54-26.19,36-57.25-1.59c-8.32,25.61-7.68,23.66-16,49.27l47.24,32.37V411.3l-47.24,32.37c8.32,25.61,7.68,23.66,16,49.27l57.25-1.59,26.19,36-19.2,54L506,611.8l45.39-34.94,42.37,13.77,16.18,54.94h51.8l16.18-54.94,42.37-13.77,45.38,34.94,41.91-30.45-19.2-54,26.19-36,57.25,1.59c8.32-25.61,7.68-23.66,16-49.27L840.55,411.3Zm-89.3,33.16L653,493.05a15,15,0,0,1-25.32-10.88V446.12h-73a15,15,0,0,1-15-15V346.94a15,15,0,0,1,15-15h73V295.89A15,15,0,0,1,653,285l98.24,93.13A15,15,0,0,1,751.25,399.92Z" transform="translate(-383.83 -132.49)"/></svg>